<mxfile host="app.diagrams.net" modified="2021-12-25T03:24:01.834Z" agent="5.0 (Macintosh; Intel Mac OS X 10_15_7) AppleWebKit/537.36 (KHTML, like Gecko) Chrome/96.0.4664.110 Safari/537.36" etag="qG4w18jZ9Pa-1u_SlPiV" version="16.0.0" type="github">
  <diagram id="C5RBs43oDa-KdzZeNtuy" name="Page-1">
    <mxGraphModel dx="983" dy="548" grid="1" gridSize="10" guides="1" tooltips="1" connect="1" arrows="1" fold="1" page="1" pageScale="1" pageWidth="827" pageHeight="1169" math="0" shadow="0">
      <root>
        <mxCell id="WIyWlLk6GJQsqaUBKTNV-0" />
        <mxCell id="WIyWlLk6GJQsqaUBKTNV-1" parent="WIyWlLk6GJQsqaUBKTNV-0" />
        <mxCell id="wYROfdngdSuVXmYMU6Lx-3" style="edgeStyle=orthogonalEdgeStyle;rounded=0;orthogonalLoop=1;jettySize=auto;html=1;" edge="1" parent="WIyWlLk6GJQsqaUBKTNV-1" source="wYROfdngdSuVXmYMU6Lx-0" target="wYROfdngdSuVXmYMU6Lx-1">
          <mxGeometry relative="1" as="geometry" />
        </mxCell>
        <mxCell id="wYROfdngdSuVXmYMU6Lx-0" value="查询当对D日支付的提现单" style="rounded=0;whiteSpace=wrap;html=1;" vertex="1" parent="WIyWlLk6GJQsqaUBKTNV-1">
          <mxGeometry x="145" y="110" width="170" height="60" as="geometry" />
        </mxCell>
        <mxCell id="wYROfdngdSuVXmYMU6Lx-4" style="edgeStyle=orthogonalEdgeStyle;rounded=0;orthogonalLoop=1;jettySize=auto;html=1;entryX=0.5;entryY=0;entryDx=0;entryDy=0;" edge="1" parent="WIyWlLk6GJQsqaUBKTNV-1" source="wYROfdngdSuVXmYMU6Lx-1" target="wYROfdngdSuVXmYMU6Lx-2">
          <mxGeometry relative="1" as="geometry" />
        </mxCell>
        <mxCell id="wYROfdngdSuVXmYMU6Lx-5" value="否" style="edgeLabel;html=1;align=center;verticalAlign=middle;resizable=0;points=[];" vertex="1" connectable="0" parent="wYROfdngdSuVXmYMU6Lx-4">
          <mxGeometry x="-0.3545" y="-1" relative="1" as="geometry">
            <mxPoint as="offset" />
          </mxGeometry>
        </mxCell>
        <mxCell id="wYROfdngdSuVXmYMU6Lx-48" style="edgeStyle=orthogonalEdgeStyle;rounded=0;orthogonalLoop=1;jettySize=auto;html=1;entryX=0;entryY=0.5;entryDx=0;entryDy=0;" edge="1" parent="WIyWlLk6GJQsqaUBKTNV-1" source="wYROfdngdSuVXmYMU6Lx-1" target="wYROfdngdSuVXmYMU6Lx-7">
          <mxGeometry relative="1" as="geometry">
            <Array as="points">
              <mxPoint x="340" y="260" />
              <mxPoint x="340" y="140" />
            </Array>
          </mxGeometry>
        </mxCell>
        <mxCell id="wYROfdngdSuVXmYMU6Lx-49" value="是" style="edgeLabel;html=1;align=center;verticalAlign=middle;resizable=0;points=[];" vertex="1" connectable="0" parent="wYROfdngdSuVXmYMU6Lx-48">
          <mxGeometry x="-0.8911" relative="1" as="geometry">
            <mxPoint as="offset" />
          </mxGeometry>
        </mxCell>
        <mxCell id="wYROfdngdSuVXmYMU6Lx-1" value="是否存在" style="rhombus;whiteSpace=wrap;html=1;" vertex="1" parent="WIyWlLk6GJQsqaUBKTNV-1">
          <mxGeometry x="190" y="220" width="80" height="80" as="geometry" />
        </mxCell>
        <mxCell id="wYROfdngdSuVXmYMU6Lx-50" style="edgeStyle=orthogonalEdgeStyle;rounded=0;orthogonalLoop=1;jettySize=auto;html=1;entryX=0;entryY=0.5;entryDx=0;entryDy=0;" edge="1" parent="WIyWlLk6GJQsqaUBKTNV-1" source="wYROfdngdSuVXmYMU6Lx-2" target="wYROfdngdSuVXmYMU6Lx-7">
          <mxGeometry relative="1" as="geometry">
            <Array as="points">
              <mxPoint x="340" y="380" />
              <mxPoint x="340" y="140" />
            </Array>
          </mxGeometry>
        </mxCell>
        <mxCell id="wYROfdngdSuVXmYMU6Lx-2" value="创建对D日支付的提现单&lt;br&gt;状态: 标记中" style="rounded=0;whiteSpace=wrap;html=1;" vertex="1" parent="WIyWlLk6GJQsqaUBKTNV-1">
          <mxGeometry x="157.5" y="350" width="145" height="60" as="geometry" />
        </mxCell>
        <mxCell id="wYROfdngdSuVXmYMU6Lx-6" value="事务:初始化提现单" style="swimlane;fillColor=#3399FF;" vertex="1" parent="WIyWlLk6GJQsqaUBKTNV-1">
          <mxGeometry x="130" y="70" width="200" height="690" as="geometry" />
        </mxCell>
        <mxCell id="wYROfdngdSuVXmYMU6Lx-51" value="如果发生DuplicateKeyExcepton,再次查询" style="text;html=1;strokeColor=none;fillColor=none;align=left;verticalAlign=top;whiteSpace=wrap;rounded=0;" vertex="1" parent="wYROfdngdSuVXmYMU6Lx-6">
          <mxGeometry x="15" y="350" width="185" height="50" as="geometry" />
        </mxCell>
        <mxCell id="wYROfdngdSuVXmYMU6Lx-18" style="edgeStyle=orthogonalEdgeStyle;rounded=0;orthogonalLoop=1;jettySize=auto;html=1;entryX=0.5;entryY=0;entryDx=0;entryDy=0;" edge="1" parent="WIyWlLk6GJQsqaUBKTNV-1" source="wYROfdngdSuVXmYMU6Lx-7" target="wYROfdngdSuVXmYMU6Lx-9">
          <mxGeometry relative="1" as="geometry" />
        </mxCell>
        <mxCell id="wYROfdngdSuVXmYMU6Lx-7" value="查询D日支付成功的支付单(分页)" style="rounded=0;whiteSpace=wrap;html=1;" vertex="1" parent="WIyWlLk6GJQsqaUBKTNV-1">
          <mxGeometry x="418" y="110" width="120" height="60" as="geometry" />
        </mxCell>
        <mxCell id="wYROfdngdSuVXmYMU6Lx-8" value="支付单list.foreach(事务)" style="swimlane;fillColor=#3399FF;" vertex="1" parent="WIyWlLk6GJQsqaUBKTNV-1">
          <mxGeometry x="373" y="190" width="200" height="400" as="geometry" />
        </mxCell>
        <mxCell id="wYROfdngdSuVXmYMU6Lx-17" value="标记支付单所属提现单" style="swimlane;" vertex="1" parent="WIyWlLk6GJQsqaUBKTNV-1">
          <mxGeometry x="360" y="70" width="230" height="690" as="geometry" />
        </mxCell>
        <mxCell id="wYROfdngdSuVXmYMU6Lx-9" value="锁定支付单" style="rounded=0;whiteSpace=wrap;html=1;" vertex="1" parent="wYROfdngdSuVXmYMU6Lx-17">
          <mxGeometry x="59" y="190" width="120" height="60" as="geometry" />
        </mxCell>
        <mxCell id="wYROfdngdSuVXmYMU6Lx-15" style="edgeStyle=orthogonalEdgeStyle;rounded=0;orthogonalLoop=1;jettySize=auto;html=1;entryX=1;entryY=0.5;entryDx=0;entryDy=0;exitX=1;exitY=0.5;exitDx=0;exitDy=0;" edge="1" parent="wYROfdngdSuVXmYMU6Lx-17" source="wYROfdngdSuVXmYMU6Lx-11" target="wYROfdngdSuVXmYMU6Lx-9">
          <mxGeometry relative="1" as="geometry">
            <Array as="points">
              <mxPoint x="209" y="340" />
              <mxPoint x="209" y="220" />
            </Array>
          </mxGeometry>
        </mxCell>
        <mxCell id="wYROfdngdSuVXmYMU6Lx-16" value="是" style="edgeLabel;html=1;align=center;verticalAlign=middle;resizable=0;points=[];" vertex="1" connectable="0" parent="wYROfdngdSuVXmYMU6Lx-15">
          <mxGeometry x="-0.6853" y="1" relative="1" as="geometry">
            <mxPoint as="offset" />
          </mxGeometry>
        </mxCell>
        <mxCell id="wYROfdngdSuVXmYMU6Lx-11" value="是否被标记" style="rhombus;whiteSpace=wrap;html=1;" vertex="1" parent="wYROfdngdSuVXmYMU6Lx-17">
          <mxGeometry x="79" y="300" width="80" height="80" as="geometry" />
        </mxCell>
        <mxCell id="wYROfdngdSuVXmYMU6Lx-12" style="edgeStyle=orthogonalEdgeStyle;rounded=0;orthogonalLoop=1;jettySize=auto;html=1;entryX=0.5;entryY=0;entryDx=0;entryDy=0;" edge="1" parent="wYROfdngdSuVXmYMU6Lx-17" source="wYROfdngdSuVXmYMU6Lx-9" target="wYROfdngdSuVXmYMU6Lx-11">
          <mxGeometry relative="1" as="geometry" />
        </mxCell>
        <mxCell id="wYROfdngdSuVXmYMU6Lx-20" style="edgeStyle=orthogonalEdgeStyle;rounded=0;orthogonalLoop=1;jettySize=auto;html=1;entryX=0.5;entryY=0;entryDx=0;entryDy=0;" edge="1" parent="wYROfdngdSuVXmYMU6Lx-17" source="wYROfdngdSuVXmYMU6Lx-13" target="wYROfdngdSuVXmYMU6Lx-19">
          <mxGeometry relative="1" as="geometry" />
        </mxCell>
        <mxCell id="wYROfdngdSuVXmYMU6Lx-13" value="标记提现单ID到支付单" style="rounded=0;whiteSpace=wrap;html=1;" vertex="1" parent="wYROfdngdSuVXmYMU6Lx-17">
          <mxGeometry x="52" y="430" width="133" height="60" as="geometry" />
        </mxCell>
        <mxCell id="wYROfdngdSuVXmYMU6Lx-14" value="否" style="edgeStyle=orthogonalEdgeStyle;rounded=0;orthogonalLoop=1;jettySize=auto;html=1;" edge="1" parent="wYROfdngdSuVXmYMU6Lx-17" source="wYROfdngdSuVXmYMU6Lx-11" target="wYROfdngdSuVXmYMU6Lx-13">
          <mxGeometry relative="1" as="geometry" />
        </mxCell>
        <mxCell id="wYROfdngdSuVXmYMU6Lx-19" value="是否标记结束" style="rhombus;whiteSpace=wrap;html=1;" vertex="1" parent="wYROfdngdSuVXmYMU6Lx-17">
          <mxGeometry x="79" y="560" width="80" height="80" as="geometry" />
        </mxCell>
        <mxCell id="wYROfdngdSuVXmYMU6Lx-21" style="edgeStyle=orthogonalEdgeStyle;rounded=0;orthogonalLoop=1;jettySize=auto;html=1;entryX=1;entryY=0.5;entryDx=0;entryDy=0;" edge="1" parent="WIyWlLk6GJQsqaUBKTNV-1" source="wYROfdngdSuVXmYMU6Lx-19" target="wYROfdngdSuVXmYMU6Lx-7">
          <mxGeometry relative="1" as="geometry">
            <Array as="points">
              <mxPoint x="580" y="670" />
              <mxPoint x="580" y="140" />
            </Array>
          </mxGeometry>
        </mxCell>
        <mxCell id="wYROfdngdSuVXmYMU6Lx-22" value="否" style="edgeLabel;html=1;align=center;verticalAlign=middle;resizable=0;points=[];" vertex="1" connectable="0" parent="wYROfdngdSuVXmYMU6Lx-21">
          <mxGeometry x="-0.9344" y="-1" relative="1" as="geometry">
            <mxPoint as="offset" />
          </mxGeometry>
        </mxCell>
        <mxCell id="wYROfdngdSuVXmYMU6Lx-26" style="edgeStyle=orthogonalEdgeStyle;rounded=0;orthogonalLoop=1;jettySize=auto;html=1;entryX=0.5;entryY=0;entryDx=0;entryDy=0;" edge="1" parent="WIyWlLk6GJQsqaUBKTNV-1" source="wYROfdngdSuVXmYMU6Lx-23" target="wYROfdngdSuVXmYMU6Lx-24">
          <mxGeometry relative="1" as="geometry" />
        </mxCell>
        <mxCell id="wYROfdngdSuVXmYMU6Lx-23" value="统计支付单待提现金额&lt;br&gt;条件:被标记的支付单" style="rounded=0;whiteSpace=wrap;html=1;" vertex="1" parent="WIyWlLk6GJQsqaUBKTNV-1">
          <mxGeometry x="670" y="110" width="130" height="60" as="geometry" />
        </mxCell>
        <mxCell id="wYROfdngdSuVXmYMU6Lx-27" style="edgeStyle=orthogonalEdgeStyle;rounded=0;orthogonalLoop=1;jettySize=auto;html=1;entryX=0.5;entryY=0;entryDx=0;entryDy=0;" edge="1" parent="WIyWlLk6GJQsqaUBKTNV-1" source="wYROfdngdSuVXmYMU6Lx-24" target="wYROfdngdSuVXmYMU6Lx-25">
          <mxGeometry relative="1" as="geometry" />
        </mxCell>
        <mxCell id="wYROfdngdSuVXmYMU6Lx-24" value="锁定提现单" style="rounded=0;whiteSpace=wrap;html=1;" vertex="1" parent="WIyWlLk6GJQsqaUBKTNV-1">
          <mxGeometry x="675" y="260" width="120" height="60" as="geometry" />
        </mxCell>
        <mxCell id="wYROfdngdSuVXmYMU6Lx-29" style="edgeStyle=orthogonalEdgeStyle;rounded=0;orthogonalLoop=1;jettySize=auto;html=1;entryX=0.5;entryY=0;entryDx=0;entryDy=0;" edge="1" parent="WIyWlLk6GJQsqaUBKTNV-1" source="wYROfdngdSuVXmYMU6Lx-25" target="wYROfdngdSuVXmYMU6Lx-28">
          <mxGeometry relative="1" as="geometry" />
        </mxCell>
        <mxCell id="wYROfdngdSuVXmYMU6Lx-30" value="是" style="edgeLabel;html=1;align=center;verticalAlign=middle;resizable=0;points=[];" vertex="1" connectable="0" parent="wYROfdngdSuVXmYMU6Lx-29">
          <mxGeometry x="-0.1759" y="-1" relative="1" as="geometry">
            <mxPoint as="offset" />
          </mxGeometry>
        </mxCell>
        <mxCell id="wYROfdngdSuVXmYMU6Lx-32" style="edgeStyle=orthogonalEdgeStyle;rounded=0;orthogonalLoop=1;jettySize=auto;html=1;entryX=0;entryY=0.5;entryDx=0;entryDy=0;exitX=1;exitY=0.5;exitDx=0;exitDy=0;" edge="1" parent="WIyWlLk6GJQsqaUBKTNV-1" source="wYROfdngdSuVXmYMU6Lx-25">
          <mxGeometry relative="1" as="geometry">
            <mxPoint x="930" y="140" as="targetPoint" />
            <Array as="points">
              <mxPoint x="870" y="400" />
              <mxPoint x="870" y="140" />
            </Array>
          </mxGeometry>
        </mxCell>
        <mxCell id="wYROfdngdSuVXmYMU6Lx-33" value="否" style="edgeLabel;html=1;align=center;verticalAlign=middle;resizable=0;points=[];" vertex="1" connectable="0" parent="wYROfdngdSuVXmYMU6Lx-32">
          <mxGeometry x="-0.8492" y="1" relative="1" as="geometry">
            <mxPoint as="offset" />
          </mxGeometry>
        </mxCell>
        <mxCell id="wYROfdngdSuVXmYMU6Lx-25" value="是否是标记中" style="rhombus;whiteSpace=wrap;html=1;" vertex="1" parent="WIyWlLk6GJQsqaUBKTNV-1">
          <mxGeometry x="695" y="360" width="80" height="80" as="geometry" />
        </mxCell>
        <mxCell id="wYROfdngdSuVXmYMU6Lx-34" style="edgeStyle=orthogonalEdgeStyle;rounded=0;orthogonalLoop=1;jettySize=auto;html=1;entryX=0;entryY=0.5;entryDx=0;entryDy=0;exitX=1;exitY=0.5;exitDx=0;exitDy=0;" edge="1" parent="WIyWlLk6GJQsqaUBKTNV-1" source="wYROfdngdSuVXmYMU6Lx-28">
          <mxGeometry relative="1" as="geometry">
            <mxPoint x="930" y="140" as="targetPoint" />
            <Array as="points">
              <mxPoint x="870" y="510" />
              <mxPoint x="870" y="140" />
            </Array>
          </mxGeometry>
        </mxCell>
        <mxCell id="wYROfdngdSuVXmYMU6Lx-28" value="更新提现金额和状态&lt;br&gt;标记完成" style="rounded=0;whiteSpace=wrap;html=1;" vertex="1" parent="WIyWlLk6GJQsqaUBKTNV-1">
          <mxGeometry x="675" y="480" width="120" height="60" as="geometry" />
        </mxCell>
        <mxCell id="wYROfdngdSuVXmYMU6Lx-39" style="edgeStyle=orthogonalEdgeStyle;rounded=0;orthogonalLoop=1;jettySize=auto;html=1;entryX=0.5;entryY=0;entryDx=0;entryDy=0;" edge="1" parent="WIyWlLk6GJQsqaUBKTNV-1" source="wYROfdngdSuVXmYMU6Lx-35" target="wYROfdngdSuVXmYMU6Lx-37">
          <mxGeometry relative="1" as="geometry" />
        </mxCell>
        <mxCell id="wYROfdngdSuVXmYMU6Lx-35" value="锁定提现单" style="rounded=0;whiteSpace=wrap;html=1;" vertex="1" parent="WIyWlLk6GJQsqaUBKTNV-1">
          <mxGeometry x="930" y="110" width="120" height="60" as="geometry" />
        </mxCell>
        <mxCell id="wYROfdngdSuVXmYMU6Lx-36" value="事务:统计提现金额并更新到提现单" style="swimlane;fillColor=#3399FF;" vertex="1" parent="WIyWlLk6GJQsqaUBKTNV-1">
          <mxGeometry x="630" y="190" width="200" height="400" as="geometry" />
        </mxCell>
        <mxCell id="wYROfdngdSuVXmYMU6Lx-40" style="edgeStyle=orthogonalEdgeStyle;rounded=0;orthogonalLoop=1;jettySize=auto;html=1;entryX=0.5;entryY=0;entryDx=0;entryDy=0;" edge="1" parent="WIyWlLk6GJQsqaUBKTNV-1" source="wYROfdngdSuVXmYMU6Lx-37" target="wYROfdngdSuVXmYMU6Lx-38">
          <mxGeometry relative="1" as="geometry" />
        </mxCell>
        <mxCell id="wYROfdngdSuVXmYMU6Lx-45" value="是" style="edgeLabel;html=1;align=center;verticalAlign=middle;resizable=0;points=[];" vertex="1" connectable="0" parent="wYROfdngdSuVXmYMU6Lx-40">
          <mxGeometry x="-0.1759" relative="1" as="geometry">
            <mxPoint as="offset" />
          </mxGeometry>
        </mxCell>
        <mxCell id="wYROfdngdSuVXmYMU6Lx-37" value="是否标记完成" style="rhombus;whiteSpace=wrap;html=1;" vertex="1" parent="WIyWlLk6GJQsqaUBKTNV-1">
          <mxGeometry x="950" y="210" width="80" height="80" as="geometry" />
        </mxCell>
        <mxCell id="wYROfdngdSuVXmYMU6Lx-42" style="edgeStyle=orthogonalEdgeStyle;rounded=0;orthogonalLoop=1;jettySize=auto;html=1;entryX=0.5;entryY=0;entryDx=0;entryDy=0;" edge="1" parent="WIyWlLk6GJQsqaUBKTNV-1" source="wYROfdngdSuVXmYMU6Lx-38" target="wYROfdngdSuVXmYMU6Lx-41">
          <mxGeometry relative="1" as="geometry" />
        </mxCell>
        <mxCell id="wYROfdngdSuVXmYMU6Lx-38" value="调用易宝支付发起提现" style="rounded=0;whiteSpace=wrap;html=1;" vertex="1" parent="WIyWlLk6GJQsqaUBKTNV-1">
          <mxGeometry x="920" y="330" width="140" height="60" as="geometry" />
        </mxCell>
        <mxCell id="wYROfdngdSuVXmYMU6Lx-44" style="edgeStyle=orthogonalEdgeStyle;rounded=0;orthogonalLoop=1;jettySize=auto;html=1;entryX=0.5;entryY=0;entryDx=0;entryDy=0;" edge="1" parent="WIyWlLk6GJQsqaUBKTNV-1" source="wYROfdngdSuVXmYMU6Lx-41" target="wYROfdngdSuVXmYMU6Lx-43">
          <mxGeometry relative="1" as="geometry" />
        </mxCell>
        <mxCell id="wYROfdngdSuVXmYMU6Lx-47" value="是" style="edgeLabel;html=1;align=center;verticalAlign=middle;resizable=0;points=[];" vertex="1" connectable="0" parent="wYROfdngdSuVXmYMU6Lx-44">
          <mxGeometry x="-0.2552" y="-1" relative="1" as="geometry">
            <mxPoint as="offset" />
          </mxGeometry>
        </mxCell>
        <mxCell id="wYROfdngdSuVXmYMU6Lx-41" value="是否申请成功" style="rhombus;whiteSpace=wrap;html=1;" vertex="1" parent="WIyWlLk6GJQsqaUBKTNV-1">
          <mxGeometry x="950" y="440" width="80" height="80" as="geometry" />
        </mxCell>
        <mxCell id="wYROfdngdSuVXmYMU6Lx-43" value="更新提现单状态&lt;br&gt;已申请提现" style="rounded=0;whiteSpace=wrap;html=1;" vertex="1" parent="WIyWlLk6GJQsqaUBKTNV-1">
          <mxGeometry x="920" y="580" width="140" height="60" as="geometry" />
        </mxCell>
        <mxCell id="wYROfdngdSuVXmYMU6Lx-46" value="事务:执行提现申请" style="swimlane;fillColor=#3399FF;" vertex="1" parent="WIyWlLk6GJQsqaUBKTNV-1">
          <mxGeometry x="890" y="70" width="200" height="690" as="geometry" />
        </mxCell>
        <mxCell id="wYROfdngdSuVXmYMU6Lx-52" value="统计提现金额" style="swimlane;fillColor=#FFFFFF;" vertex="1" parent="WIyWlLk6GJQsqaUBKTNV-1">
          <mxGeometry x="610" y="70" width="240" height="690" as="geometry" />
        </mxCell>
      </root>
    </mxGraphModel>
  </diagram>
</mxfile>
